<svg width="17" height="18" viewBox="0 0 17 18" fill="none" xmlns="http://www.w3.org/2000/svg">
<path d="M1.12461 9.28577C1.12461 12.2085 2.82462 14.7258 5.28307 15.9223L1.76538 6.28462C1.34298 7.22877 1.12463 8.25144 1.12461 9.28577ZM8.5 16.6611C9.35655 16.6611 10.1804 16.5108 10.9519 16.2427L10.8996 16.1446L8.63076 9.93308L6.42076 16.3604C7.07462 16.5565 7.77424 16.6611 8.5 16.6611ZM9.51345 5.82691L12.1811 13.7581L12.92 11.2996C13.2339 10.2796 13.4758 9.54731 13.4758 8.91308C13.4758 7.99769 13.1489 7.37 12.8742 6.88615C12.495 6.27153 12.1485 5.755 12.1485 5.15346C12.1485 4.47346 12.6585 3.84577 13.3908 3.84577H13.4823C12.1233 2.59817 10.3448 1.90731 8.5 1.91038C7.2785 1.91015 6.07609 2.21359 5.00096 2.79338C3.92581 3.37318 3.01167 4.21115 2.34076 5.23191L2.81154 5.245C3.58307 5.245 4.77307 5.14691 4.77307 5.14691C5.17846 5.12731 5.22424 5.70922 4.82538 5.755C4.82538 5.755 4.42655 5.80731 3.97538 5.82691L6.66924 13.8169L8.28424 8.97846L7.13345 5.82691C6.8757 5.8127 6.61841 5.79089 6.36193 5.76153C5.96307 5.73538 6.00885 5.12731 6.40769 5.14691C6.40769 5.14691 7.62385 5.245 8.34962 5.245C9.12115 5.245 10.3111 5.14691 10.3111 5.14691C10.71 5.12731 10.7623 5.70922 10.3635 5.755C10.3635 5.755 9.96462 5.80077 9.51345 5.82691ZM12.2073 15.6608C13.3231 15.012 14.249 14.0818 14.8927 12.9631C15.5364 11.8444 15.8752 10.5764 15.8754 9.28577C15.8754 8.00422 15.5485 6.80115 14.9731 5.74846C15.0899 6.9066 14.9146 8.07557 14.4631 9.14846L12.2073 15.6608ZM8.5 17.7858C6.24566 17.7858 4.08365 16.8902 2.4896 15.2962C0.895533 13.7021 0 11.5401 0 9.28577C0 7.03143 0.895533 4.86942 2.4896 3.27537C4.08365 1.6813 6.24566 0.785767 8.5 0.785767C10.7543 0.785767 12.9163 1.6813 14.5104 3.27537C16.1045 4.86942 17 7.03143 17 9.28577C17 11.5401 16.1045 13.7021 14.5104 15.2962C12.9163 16.8902 10.7543 17.7858 8.5 17.7858Z" fill="#126FC2"/>
</svg>
