<svg width="18" height="18" viewBox="0 0 18 18" fill="none" xmlns="http://www.w3.org/2000/svg">
<path fill-rule="evenodd" clip-rule="evenodd" d="M2 0C0.895431 0 0 0.89543 0 2L0 16C0 17.1046 0.89543 18 2 18L16 18C17.1046 18 18 17.1046 18 16L18 2C18 0.895431 17.1046 0 16 0L2 0Z" fill="white"/>
<path fill-rule="evenodd" clip-rule="evenodd" d="M2 0C0.895431 0 0 0.89543 0 2L0 16C0 17.1046 0.89543 18 2 18L16 18C17.1046 18 18 17.1046 18 16L18 2C18 0.895431 17.1046 0 16 0L2 0ZM12.401 7.34323C12.401 7.34323 11.428 10.2821 11.3485 10.5248C11.1035 8.68293 10.8561 6.84132 10.6065 5C8.9485 5 8.062 6.13646 7.5935 7.336L6.311 10.5321C6.3035 10.3028 6.131 7.37067 6.131 7.37067C6.029 5.90098 4.631 5.00626 3.5 5.00626L4.8695 13C6.6065 12.9928 7.543 11.8631 8.0335 10.6635C8.0335 10.6635 9.0785 8.06411 9.1215 7.94613C9.129 8.05688 9.8715 12.9995 9.8715 12.9995C11.6155 12.9995 12.5525 11.9391 13.0565 10.7815L15.5 5.00674C13.7775 5.00674 12.8695 6.13694 12.401 7.34323Z" fill="#4353FF"/>
</svg>
