<svg width="20" height="20" viewBox="0 0 20 20" fill="none" xmlns="http://www.w3.org/2000/svg">
<g clip-path="url(#clip0_0_324)">
<path d="M10 20C15.5228 20 20 15.5228 20 10C20 4.47715 15.5228 0 10 0C4.47715 0 0 4.47715 0 10C0 15.5228 4.47715 20 10 20Z" fill="#FF4A00"/>
<path d="M11.25 10.0021C11.2501 10.3624 11.185 10.7197 11.058 11.0568C10.7206 11.1843 10.3629 11.2498 10.0021 11.25H9.99785C9.6376 11.25 9.2803 11.185 8.94316 11.058C8.81564 10.7206 8.7502 10.3629 8.75 10.0021V9.99785C8.75004 9.6376 8.81508 9.28032 8.94199 8.94316C9.27942 8.81563 9.63713 8.75019 9.99785 8.75H10.0021C10.3628 8.74985 10.7205 8.81497 11.058 8.94219C11.185 9.27931 11.2501 9.63662 11.25 9.99687V10.0012V10.0021ZM14.9305 9.1666H12.0117L14.0756 7.10293C13.9135 6.87559 13.7327 6.66215 13.5352 6.46484C13.3378 6.26756 13.1244 6.08706 12.8971 5.9252L10.8334 7.98828V5.06953C10.5589 5.02342 10.2811 5.00016 10.0027 5H9.99746C9.71913 5.00016 9.44129 5.02342 9.1668 5.06953V7.98828L7.10293 5.92441C6.87559 6.08652 6.66216 6.26729 6.46484 6.46484C6.26764 6.66207 6.0872 6.87537 5.92539 7.10254L7.98828 9.1666H5.06953C5.06953 9.1666 5 9.71484 5 9.99824V10.0018C5.00011 10.2804 5.02337 10.5586 5.06953 10.8334H7.98828L5.92441 12.8971C6.24896 13.3527 6.64727 13.751 7.10293 14.0756L9.1666 12.0117V14.9305C9.44083 14.9765 9.71841 14.9998 9.99648 15H10.0037C10.2817 14.9998 10.5592 14.9765 10.8334 14.9305V12.0117L12.8971 14.0756C13.1244 13.9135 13.3378 13.7327 13.5352 13.5352C13.7325 13.3378 13.9131 13.1244 14.075 12.8971L12.0117 10.8334H14.9305C14.9765 10.5592 14.9998 10.2816 15 10.0035V9.99629C14.9998 9.71828 14.9765 9.44077 14.9305 9.1666Z" fill="white"/>
</g>
<defs>
<clipPath id="clip0_0_324">
<rect width="20" height="20" fill="white"/>
</clipPath>
</defs>
</svg>
