<svg width="21" height="16" viewBox="0 0 21 16" fill="none" xmlns="http://www.w3.org/2000/svg">
<path d="M0.750061 14.7008C0.750061 15.406 1.32618 15.9772 2.03601 15.9772H2.0545C1.3338 15.9772 0.750061 15.406 0.750061 14.7008Z" fill="#FBBC05"/>
<path d="M11.8006 4.80893V8.1413L16.2933 4.51749V1.29893C16.2933 0.59374 15.7172 0.0225677 15.0074 0.0225677L5.27412 0.0225677L5.26543 4.80893L11.8006 4.80893Z" fill="#FBBC05"/>
<path d="M11.8009 11.4751H5.25485L5.24724 15.9774L15.0077 15.9774C15.7186 15.9774 16.2936 15.4063 16.2936 14.7011V11.7952L11.8009 8.1427V11.4751Z" fill="#34A853"/>
<path d="M5.27427 0.0225677L0.750061 4.80893L5.26666 4.80893L5.27427 0.0225677Z" fill="#EA4335"/>
<path d="M0.750061 11.4748L0.750061 14.7008C0.750061 15.406 1.3338 15.9771 2.0545 15.9771H5.2471L5.25471 11.4748H0.750061Z" fill="#1967D2"/>
<path d="M5.26666 4.80893L0.750061 4.80893L0.750061 11.4747H5.25471L5.26666 4.80893Z" fill="#4285F4"/>
<path d="M20.2436 13.5662V2.61071C19.9903 1.15672 18.3956 2.82344 18.3956 2.82344L16.2944 4.51781V11.7941L19.3022 14.2394C20.3881 14.382 20.2436 13.5662 20.2436 13.5662Z" fill="#34A853"/>
<path d="M11.8007 8.1413L16.2944 11.7949V4.51855L11.8007 8.1413Z" fill="#188038"/>
</svg>
