<svg width="10" height="16" viewBox="0 0 10 16" fill="none" xmlns="http://www.w3.org/2000/svg">
<path fill-rule="evenodd" clip-rule="evenodd" d="M5 8C5 6.61929 6.11929 5.5 7.5 5.5C8.88071 5.5 10 6.61929 10 8C10 9.38071 8.88071 10.5 7.5 10.5C6.11929 10.5 5 9.38071 5 8Z" fill="#1ABCFE"/>
<path fill-rule="evenodd" clip-rule="evenodd" d="M0 13C0 11.6193 1.11929 10.5 2.5 10.5H5V13C5 14.3807 3.88071 15.5 2.5 15.5C1.11929 15.5 0 14.3807 0 13Z" fill="#0ACF83"/>
<path fill-rule="evenodd" clip-rule="evenodd" d="M5 0.5L5 5.5H7.5C8.88071 5.5 10 4.38071 10 3C10 1.61929 8.88071 0.5 7.5 0.5L5 0.5Z" fill="#FF7262"/>
<path fill-rule="evenodd" clip-rule="evenodd" d="M0 3C0 4.38071 1.11929 5.5 2.5 5.5L5 5.5L5 0.5L2.5 0.5C1.11929 0.5 0 1.61929 0 3Z" fill="#F24E1E"/>
<path fill-rule="evenodd" clip-rule="evenodd" d="M0 8C0 9.38071 1.11929 10.5 2.5 10.5H5L5 5.5L2.5 5.5C1.11929 5.5 0 6.61929 0 8Z" fill="#A259FF"/>
</svg>
