<svg width="20" height="18" viewBox="0 0 20 18" fill="none" xmlns="http://www.w3.org/2000/svg">
<rect x="0.249939" width="19" height="18" rx="9" fill="white"/>
<path d="M14.8845 12.217C14.8856 12.4195 14.8413 12.6199 14.7545 12.8049C14.6677 12.9899 14.5403 13.1553 14.3809 13.2902C14.2215 13.425 14.0336 13.5262 13.8298 13.5871C13.626 13.648 13.4108 13.6671 13.1986 13.6433C12.426 13.5349 11.8599 12.8981 11.8787 12.1584V3.65456C11.86 2.91412 12.4276 2.27687 13.2011 2.16974C13.4132 2.14622 13.6281 2.16562 13.8316 2.22666C14.0351 2.28769 14.2226 2.38896 14.3818 2.52378C14.5409 2.6586 14.668 2.82389 14.7547 3.00872C14.8413 3.19355 14.8856 3.39371 14.8845 3.59595V12.217Z" fill="#F9AB00"/>
<path d="M5.4262 10.8078C6.25624 10.8078 6.92911 11.4453 6.92911 12.2316C6.92911 13.018 6.25624 13.6555 5.4262 13.6555C4.59615 13.6555 3.92328 13.018 3.92328 12.2317C3.92328 11.4453 4.59615 10.8078 5.4262 10.8078ZM9.38068 6.49241C8.54673 6.53573 7.89964 7.19845 7.91904 7.98952V11.814C7.91904 12.852 8.40111 13.4821 9.10742 13.6164C9.3264 13.6584 9.55251 13.6538 9.76935 13.6028C9.9862 13.5518 10.1883 13.4557 10.3611 13.3214C10.5339 13.1872 10.6729 13.0183 10.7682 12.8268C10.8635 12.6353 10.9126 12.4262 10.912 12.2145V7.92361C10.9123 7.73391 10.8728 7.54605 10.7958 7.37098C10.7187 7.19591 10.6056 7.03713 10.463 6.90391C10.3205 6.77069 10.1514 6.6657 9.96553 6.59505C9.7797 6.52441 9.58089 6.48953 9.38068 6.49245V6.49241Z" fill="#E37400"/>
</svg>
